<?xml version="1.0" standalone="no"?>
<!DOCTYPE svg PUBLIC "-//W3C//DTD SVG 20010904//EN"
 "http://www.w3.org/TR/2001/REC-SVG-20010904/DTD/svg10.dtd">
<svg version="1.0" xmlns="http://www.w3.org/2000/svg"
 width="1636.000000pt" height="1636.000000pt" viewBox="0 0 1636.000000 1636.000000"
 preserveAspectRatio="xMidYMid meet">
<metadata>
Created by potrace 1.14, written by Peter Selinger 2001-2017
</metadata>
<g transform="translate(0.000000,1636.000000) scale(0.100000,-0.100000)"
fill="#000000" stroke="none">
<path d="M5570 9865 l0 -1576 1028 4 1027 3 85 22 c118 31 180 55 291 113 241
127 403 320 461 549 17 72 20 103 15 205 -10 212 -72 364 -206 507 -123 131
-257 214 -470 288 l-103 37 58 23 c139 56 298 156 388 244 115 114 175 240
183 391 18 322 -186 571 -567 693 -213 68 -175 66 -1232 69 l-958 4 0 -1576z
m1533 1252 c181 -52 285 -159 322 -332 68 -324 -92 -574 -410 -640 -57 -12
-150 -18 -322 -21 l-243 -5 0 512 0 511 298 -5 c235 -3 309 -7 355 -20z m57
-1317 c36 -6 97 -26 137 -45 128 -60 209 -155 259 -302 35 -102 45 -300 20
-405 -48 -205 -192 -355 -406 -424 -47 -15 -104 -18 -387 -22 l-333 -4 0 606
0 606 323 0 c177 0 351 -5 387 -10z"/>
<path d="M9885 10865 c-599 -95 -1012 -507 -1100 -1097 -47 -308 18 -653 169
-906 181 -304 458 -504 816 -589 156 -37 427 -43 596 -15 291 50 513 156 696
331 107 101 236 299 211 321 -5 4 -46 21 -93 38 -47 17 -115 42 -153 56 l-67
25 -34 -67 c-138 -275 -396 -426 -697 -409 -254 15 -449 138 -562 356 -54 103
-124 341 -100 341 4 0 31 -7 58 -16 290 -89 720 -97 1025 -20 366 94 623 319
686 602 23 106 16 310 -16 409 -61 194 -198 361 -380 463 -144 81 -370 149
-583 177 -140 18 -360 18 -472 0z m435 -316 c100 -16 217 -77 279 -145 101
-110 143 -234 143 -419 0 -316 -150 -490 -466 -542 -159 -26 -465 -10 -695 38
l-54 11 6 128 c9 193 46 355 119 524 44 100 93 172 172 252 135 135 297 185
496 153z"/>
<path d="M3610 10341 c-200 -61 -293 -279 -198 -464 92 -182 354 -229 504 -89
71 65 106 148 105 248 -1 175 -147 316 -324 313 -34 0 -73 -4 -87 -8z"/>
<path d="M4400 10328 c-75 -29 -150 -106 -178 -181 -106 -284 194 -545 459
-401 185 101 222 361 72 511 -62 62 -124 87 -218 90 -63 2 -92 -2 -135 -19z"/>
<path d="M52 9908 l3 -203 427 -3 428 -2 0 -1370 0 -1370 440 0 440 0 0 1370
0 1370 428 2 427 3 3 203 2 202 -1300 0 -1300 0 2 -202z"/>
<path d="M3057 9408 c-196 -363 -323 -748 -367 -1112 -16 -132 -14 -384 5
-506 46 -312 170 -542 376 -697 161 -122 343 -182 582 -190 168 -6 259 5 385
47 142 49 260 125 370 240 59 60 176 231 206 298 11 23 22 42 25 42 4 0 80
-128 170 -285 l164 -285 148 0 149 0 0 1265 0 1265 -374 0 -375 0 -4 -712 c-5
-769 -5 -770 -61 -968 -55 -190 -129 -330 -224 -423 -110 -107 -232 -150 -372
-129 -377 56 -518 551 -399 1399 38 271 127 664 186 821 4 9 -54 12 -270 12
l-275 0 -45 -82z"/>
<path d="M13028 8551 c-76 -25 -148 -72 -204 -134 -85 -95 -119 -193 -112
-326 8 -141 62 -245 175 -337 148 -120 390 -126 544 -12 33 25 49 17 49 -25 0
-28 21 -53 175 -207 l175 -175 55 55 55 55 -177 177 c-143 143 -183 178 -205
178 -37 0 -44 17 -20 49 61 84 86 172 80 293 -3 78 -9 104 -34 158 -36 75
-104 155 -171 199 -103 69 -265 90 -385 52z m280 -160 c82 -42 147 -132 161
-222 34 -216 -146 -396 -359 -357 -150 27 -250 147 -251 300 -1 154 109 285
258 307 60 8 144 -4 191 -28z"/>
<path d="M7110 6505 l0 -1575 440 0 440 0 0 685 0 685 540 0 540 0 -2 203 -3
202 -537 3 -538 2 0 480 0 480 695 0 695 0 0 205 0 205 -1135 0 -1135 0 0
-1575z"/>
<path d="M10430 7575 c-572 -98 -1005 -515 -1127 -1085 -25 -120 -25 -410 0
-530 92 -429 357 -773 742 -961 198 -97 381 -139 601 -139 260 0 494 66 717
202 l77 47 0 -89 0 -90 370 0 370 0 0 33 c1 37 1 2277 0 2410 l0 87 -143 0
-142 0 -104 -173 -103 -172 -78 77 c-208 205 -468 337 -755 383 -108 18 -322
18 -425 0z m284 -379 c67 -113 118 -221 157 -335 16 -47 29 -86 29 -88 0 -2
-115 -3 -255 -3 -140 0 -255 1 -255 3 0 11 53 153 80 217 56 128 165 314 180
305 4 -3 33 -47 64 -99z m-483 -55 c-27 -57 -68 -163 -92 -237 l-44 -134 -192
0 c-106 0 -193 2 -193 6 0 3 19 33 42 66 60 89 177 208 263 268 67 46 255 143
262 136 2 -2 -19 -49 -46 -105z m914 46 c145 -73 294 -202 385 -333 27 -40 50
-75 50 -78 0 -3 -88 -6 -195 -6 l-194 0 -11 43 c-24 90 -75 226 -121 326 -27
57 -49 105 -49 107 0 5 69 -25 135 -59z m-1112 -884 c-2 -104 -1 -223 4 -265
l9 -78 -227 0 -228 0 -13 58 c-17 74 -17 338 0 415 l13 57 224 0 223 0 -5
-187z m934 150 c4 -21 8 -123 8 -228 0 -104 -4 -207 -8 -227 l-8 -38 -314 0
-314 0 -8 38 c-10 49 -10 384 0 445 l8 47 314 0 314 0 8 -37z m737 20 c27 -92
34 -294 16 -413 -18 -111 9 -100 -243 -100 l-222 0 0 265 0 265 222 0 c202 0
222 -2 227 -17z m-1564 -930 c23 -71 64 -175 91 -232 27 -57 48 -106 46 -108
-8 -7 -194 91 -263 138 -85 59 -203 179 -263 267 l-42 62 194 0 194 0 43 -127z
m729 40 c-36 -103 -123 -281 -181 -370 -22 -35 -41 -63 -43 -63 -5 0 -57 83
-101 162 -52 94 -95 191 -129 291 l-24 67 254 0 254 0 -30 -87z m670 25 c-60
-88 -178 -208 -263 -267 -69 -47 -255 -145 -263 -138 -2 2 19 51 46 108 40 83
93 229 127 347 2 9 51 12 199 12 l196 0 -42 -62z"/>
<path d="M15425 7505 c-165 -31 -327 -122 -441 -248 -59 -66 -140 -189 -190
-290 -21 -42 -43 -76 -48 -74 -5 2 -72 129 -150 282 l-141 280 -147 3 -148 3
0 -1266 0 -1265 374 0 375 0 4 753 c5 812 5 822 62 1036 30 114 99 259 150
319 76 88 155 125 268 124 58 -1 82 -7 133 -32 129 -63 244 -228 329 -474 l42
-118 33 53 c24 39 340 563 386 641 10 15 -99 116 -167 155 -190 108 -504 159
-724 118z"/>
<path d="M12800 6195 l0 -1265 375 0 375 0 0 1265 0 1265 -375 0 -375 0 0
-1265z"/>
</g>
</svg>
